Coordinates
version=1
nRows=10
nColumns=63
inDegrees=yes

Units are S.I. units (second, meters, Newtons, ...)
If the header above contains a line with 'inDegrees', this indicates whether rotational values are in degrees (yes) or radians (no).

endheader
time	pelvis_tilt	pelvis_list	pelvis_rotation	pelvis_tx	pelvis_ty	pelvis_tz	hip_flexion_r	hip_adduction_r	hip_rotation_r	knee_angle_r	knee_angle_r_beta	ankle_angle_r	subtalar_angle_r	mtp_angle_r	hip_flexion_l	hip_adduction_l	hip_rotation_l	knee_angle_l	knee_angle_l_beta	ankle_angle_l	subtalar_angle_l	mtp_angle_l	L5_S1_Flex_Ext	L5_S1_Lat_Bending	L5_S1_axial_rotation	L4_L5_Flex_Ext	L4_L5_Lat_Bending	L4_L5_axial_rotation	L3_L4_Flex_Ext	L3_L4_Lat_Bending	L3_L4_axial_rotation	L2_L3_Flex_Ext	L2_L3_Lat_Bending	L2_L3_axial_rotation	L1_L2_Flex_Ext	L1_L2_Lat_Bending	L1_L2_axial_rotation	L1_T12_Flex_Ext	L1_T12_Lat_Bending	L1_T12_axial_rotation	Abs_r3	Abs_r2	Abs_r1	Abs_t1	Abs_t2	neck_flexion	neck_bending	neck_rotation	arm_flex_r	arm_add_r	arm_rot_r	elbow_flex_r	pro_sup_r	wrist_flex_r	wrist_dev_r	arm_flex_l	arm_add_l	arm_rot_l	elbow_flex_l	pro_sup_l	wrist_flex_l	wrist_dev_l
      9.83333333	     -1.86660880	     -0.58347576	    102.56579676	      0.26919436	      0.47698122	      0.86091651	     -4.23835286	     -0.86538402	    -10.31990430	      8.62438557	      0.15052392	     31.24547783	      3.32814812	      0.00000000	     -3.05428376	      0.63839836	      5.08513693	      5.54481401	      0.09677526	     31.23095541	      7.52043272	      0.00000000	     -0.54212853	     -0.21615129	     -2.16767568	     -1.00678690	     -0.28748122	     -2.30315541	     -0.89066297	     -0.52555026	     -2.30315541	     -0.61959870	     -0.52555026	     -1.89671622	     -0.50342056	     -0.44077572	     -1.76123649	     -0.30977224	     -0.33481835	     -1.62575676	     -3.87236989	     -2.44514667	    -12.05596183	      0.00000000	      0.00000000	      3.20520848	      6.52838733	    -24.25003214	     20.25306070	    -12.25555725	     16.25397023	    144.78603322	     88.49222285	     14.19237000	    -10.20125774	      5.38639433	    -15.34036448	    127.34892523	      8.65862637	      4.34420322	     -7.70318854	    -21.14302652
      9.85000000	     -1.88440220	     -0.50435572	    102.81199656	      0.26881304	      0.47718697	      0.86071624	     -4.37000321	     -0.83643239	    -10.26351055	      8.58103249	      0.14976727	     31.22075916	      2.97781531	      0.00000000	     -3.09172735	      0.62317277	      5.20446197	      5.65862684	      0.09876167	     31.18509539	      7.72932096	      0.00000000	     -0.54098312	     -0.21837777	     -2.21914597	     -1.00465976	     -0.29044243	     -2.35784259	     -0.88878117	     -0.53096370	     -2.35784259	     -0.61828961	     -0.53096370	     -1.94175272	     -0.50235693	     -0.44531594	     -1.80305610	     -0.30911776	     -0.33826716	     -1.66435947	     -3.86418835	     -2.47033298	    -12.34222412	      0.00000000	      0.00000000	      2.67506155	      5.70414918	    -25.38739256	     19.97713931	    -12.15191649	     16.13204888	    144.29266819	     88.61864120	     13.51815643	    -11.78604158	      5.20683855	    -15.10029249	    130.20989567	      7.85890668	      3.24230270	     -6.91349453	    -20.80344710
      9.86666667	     -1.88225469	     -0.43872825	    102.88695122	      0.26866702	      0.47730322	      0.86064500	     -4.44869304	     -0.78842810	     -9.80000159	      8.52077277	      0.14871554	     31.15847652	      2.32069337	      0.00000000	     -3.18914880	      0.63016378	      5.97605722	      5.61827520	      0.09805740	     31.01707006	      6.98292095	      0.00000000	     -0.53900761	     -0.21593446	     -2.25247893	     -1.00099104	     -0.28719283	     -2.39325887	     -0.88553561	     -0.52502305	     -2.39325887	     -0.61603180	     -0.52502305	     -1.97091907	     -0.50052247	     -0.44033355	     -1.83013913	     -0.30798895	     -0.33448248	     -1.68935920	     -3.85007748	     -2.44269381	    -12.52761208	      0.00000000	      0.00000000	      2.00268522	      4.84608736	    -26.40551915	     19.95030282	    -12.08899766	     15.98350458	    143.90018068	     88.70517146	     12.74441234	    -11.96658279	      5.06026641	    -15.06328976	    130.69350417	      7.72936187	      3.14832760	     -6.57629600	    -20.69762592
      9.88333333	     -1.89233100	     -0.38889039	    102.79247517	      0.26860617	      0.47737180	      0.86088476	     -4.42658950	     -0.82532681	     -9.52660230	      8.56395746	      0.14946925	     31.25583761	      2.11904039	      0.00000000	     -3.21539346	      0.64139303	      5.74033616	      5.68698994	      0.09925670	     31.07323104	      7.40370003	      0.00000000	     -0.54034097	     -0.21095766	     -2.28202881	     -1.00346721	     -0.28057369	     -2.42465561	     -0.88772618	     -0.51292246	     -2.42465561	     -0.61755569	     -0.51292246	     -1.99677521	     -0.50176062	     -0.43018486	     -1.85414841	     -0.30875083	     -0.32677342	     -1.71152161	     -3.85960149	     -2.38639526	    -12.69195963	      0.00000000	      0.00000000	      1.22163830	      4.26095026	    -27.00844728	     20.21190718	    -12.11197669	     16.36647591	    143.36210424	     88.81185007	     10.82914462	    -12.36559546	      4.87694583	    -14.99757659	    130.49474051	      7.60483113	      3.13838079	     -6.29692661	    -20.65646896
      9.90000000	     -1.87399121	     -0.32128231	    102.70327781	      0.26862891	      0.47741649	      0.86140229	     -4.41045393	     -0.78986884	     -8.76880235	      8.56307718	      0.14945389	     31.27571341	      1.28571794	      0.00000000	     -3.23268676	      0.62637035	      5.86927545	      5.75870060	      0.10050829	     31.11373208	      7.39652017	      0.00000000	     -0.54901834	     -0.19993893	     -2.32632393	     -1.01958196	     -0.26591878	     -2.47171917	     -0.90198223	     -0.48613151	     -2.47171917	     -0.62747306	     -0.48613151	     -2.03553344	     -0.50981843	     -0.40771547	     -1.89013819	     -0.31370908	     -0.30970540	     -1.74474295	     -3.92158311	     -2.26174916	    -12.93831579	      0.00000000	      0.00000000	      0.29849650	      3.76909732	    -27.25709156	     20.70950822	    -12.15026650	     16.77246170	    142.84037001	     88.88928190	      9.22488904	    -12.21588002	      4.72728362	    -14.92564208	    130.21815246	      7.48718363	      3.15270156	     -6.22501105	    -20.69448373
      9.91666667	     -1.88488394	     -0.31301661	    102.38918902	      0.26901767	      0.47742389	      0.86207129	     -4.26270779	     -0.86103582	     -8.32814709	      8.66803431	      0.15128574	     31.41815507	      1.16125911	      0.00000000	     -3.20085474	      0.66555388	      5.58675421	      5.81708968	      0.10152737	     31.18856348	      7.58890534	      0.00000000	     -0.55595075	     -0.19463243	     -2.33718648	     -1.03245613	     -0.25886113	     -2.48326064	     -0.91337148	     -0.47322929	     -2.48326064	     -0.63539611	     -0.47322929	     -2.04503817	     -0.51625586	     -0.39689445	     -1.89896402	     -0.31767026	     -0.30148563	     -1.75288986	     -3.97110058	     -2.20172096	    -12.99873006	      0.00000000	      0.00000000	     -0.68303464	      3.45657648	    -27.26003834	     21.26270166	    -12.26832247	     17.58783008	    142.30586108	     88.95656632	      6.88145307	    -12.66246689	      4.55377176	    -14.84161863	    130.15668552	      7.19795468	      3.09792411	     -6.19928551	    -20.83623352
      9.93333333	     -1.88282345	     -0.26467977	    102.23216402	      0.26935960	      0.47749741	      0.86283259	     -4.21936307	     -0.83032620	     -7.46377669	      8.65706101	      0.15109422	     31.34248300	      0.22679645	      0.00000000	     -3.15237602	      0.64882123	      5.21552140	      5.94242491	      0.10371488	     31.32597545	      8.04304817	      0.00000000	     -0.57147623	     -0.18838654	     -2.36648400	     -1.06128850	     -0.25055409	     -2.51438925	     -0.93887829	     -0.45804302	     -2.51438925	     -0.65314018	     -0.45804302	     -2.07067350	     -0.53067282	     -0.38415782	     -1.92276825	     -0.32654152	     -0.29181074	     -1.77486300	     -4.08199754	     -2.13106617	    -13.16167408	      0.00000000	      0.00000000	     -1.63052117	      3.43150893	    -26.86124189	     21.70031023	    -12.37545991	     18.20000508	    141.92133594	     89.00979049	      5.14838168	    -12.91420992	      4.45358992	    -14.76532705	    130.32048577	      6.87427930	      3.06569828	     -6.14027879	    -20.88514984
      9.95000000	     -1.93116710	     -0.18746862	    102.14017065	      0.26965315	      0.47757346	      0.86364625	     -4.23100334	     -0.88406319	     -7.29663078	      8.69118676	      0.15168982	     31.37553222	      0.18716062	      0.00000000	     -3.18315367	      0.68960395	      5.16919971	      5.96386636	      0.10408910	     31.35233737	      8.01257468	      0.00000000	     -0.59522504	     -0.18999368	     -2.38459742	     -1.10539243	     -0.25269159	     -2.53363476	     -0.97789522	     -0.46195063	     -2.53363476	     -0.68028270	     -0.46195063	     -2.08652274	     -0.55272598	     -0.38743511	     -1.93748540	     -0.34011159	     -0.29430021	     -1.78844806	     -4.25163296	     -2.14924647	    -13.26241545	      0.00000000	      0.00000000	     -2.43278706	      3.52756048	    -26.46797189	     21.84345804	    -12.40069365	     18.21899252	    141.79923657	     89.03845988	      4.91144782	    -12.71330168	      4.50991821	    -14.82701685	    129.49226968	      7.03090693	      3.24220601	     -6.35090150	    -20.95807940
      9.96666667	     -1.95204839	     -0.15917750	    101.88075965	      0.27037183	      0.47752947	      0.86422980	     -4.21634641	     -0.87968256	     -6.76032405	      8.67191318	      0.15135344	     31.25232240	     -0.17415479	      0.00000000	     -3.16572255	      0.70620417	      4.94632940	      6.00952296	      0.10488596	     31.36663466	      7.82300738	      0.00000000	     -0.60786007	     -0.19548409	     -2.33863595	     -1.12885694	     -0.25999385	     -2.48480070	     -0.99865332	     -0.47530003	     -2.48480070	     -0.69472328	     -0.47530003	     -2.04630646	     -0.56445887	     -0.39863117	     -1.90014171	     -0.34733125	     -0.30280486	     -1.75397696	     -4.34188373	     -2.21135517	    -13.00679158	      0.00000000	      0.00000000	     -3.04857485	      3.92264218	    -26.16696962	     21.71042610	    -12.70344813	     18.71421251	    141.83482885	     89.07396811	      3.05876404	    -13.58937558	      4.63279180	    -14.83273246	    130.29806845	      6.90369869	      3.06763921	     -6.34937316	    -20.84554683
      9.98333333	     -2.20417009	     -0.10597822	    101.70932918	      0.27122881	      0.47755404	      0.86469376	     -4.27272879	     -1.14032663	     -7.02447470	      8.76329079	      0.15294828	     31.34301198	      0.41232803	      0.00000000	     -3.29023655	      0.92884779	      4.78567534	      5.89812350	      0.10294167	     31.25357601	      7.72204698	      0.00000000	     -0.62799241	     -0.23388225	     -2.27289314	     -1.16624470	     -0.31106339	     -2.41494896	     -1.03172872	     -0.56866130	     -2.41494896	     -0.71773252	     -0.56866130	     -1.98878150	     -0.58315375	     -0.47693268	     -1.84672567	     -0.35883486	     -0.36228360	     -1.70466985	     -4.48568695	     -2.64572278	    -12.64114976	      0.00000000	      0.00000000	     -3.51770425	      4.07009630	    -26.40347978	     21.06975092	    -12.63215139	     18.26493724	    142.19288591	     89.08841205	      3.53026198	    -13.45197953	      4.92011694	    -15.30162050	    127.77923792	      7.77667818	      3.99232794	     -6.09477526	    -20.99921754
